<?xml version="1.0" encoding="UTF-8"?>
<svg width="20" height="20" version="1.1" viewBox="0 0 20 20" xmlns="http://www.w3.org/2000/svg"><path d="m17.256 3.9226c0.3254-0.32544 0.3254-0.85308 0-1.1785-0.3254-0.32544-0.8531-0.32544-1.1785 0l-6.0774 6.0774-6.0774-6.0774c-0.32544-0.32544-0.85307-0.32544-1.1785 0-0.32544 0.32543-0.32544 0.85307 0 1.1785l6.0774 6.0774-6.0774 6.0774c-0.32544 0.3255-0.32544 0.8531 0 1.1785 0.32544 0.3255 0.85307 0.3255 1.1785 0l6.0774-6.0774 6.0774 6.0774c0.3254 0.3255 0.8531 0.3255 1.1785 0 0.3254-0.3254 0.3254-0.853 0-1.1785l-6.0774-6.0774 6.0774-6.0774z"/></svg>
